<svg width="10" height="10" viewBox="0 0 10 10" fill="none" xmlns="http://www.w3.org/2000/svg">
<mask id="mask0_12_114" style="mask-type:alpha" maskUnits="userSpaceOnUse" x="0" y="0" width="10" height="10">
<rect width="10" height="10" fill="#D9D9D9"/>
</mask>
<g mask="url(#mask0_12_114)">
<path d="M3.75 7.49998C3.52083 7.49998 3.32465 7.41838 3.16146 7.25519C2.99826 7.09199 2.91667 6.89581 2.91667 6.66665V1.66665C2.91667 1.43748 2.99826 1.2413 3.16146 1.0781C3.32465 0.91491 3.52083 0.833313 3.75 0.833313H7.5C7.72917 0.833313 7.92535 0.91491 8.08854 1.0781C8.25174 1.2413 8.33333 1.43748 8.33333 1.66665V6.66665C8.33333 6.89581 8.25174 7.09199 8.08854 7.25519C7.92535 7.41838 7.72917 7.49998 7.5 7.49998H3.75ZM3.75 6.66665H7.5V1.66665H3.75V6.66665ZM2.08333 9.16665C1.85417 9.16665 1.65799 9.08505 1.49479 8.92185C1.3316 8.75866 1.25 8.56248 1.25 8.33331V2.49998H2.08333V8.33331H6.66667V9.16665H2.08333Z" fill="#1C1B1F"/>
</g>
</svg>
