<svg width="78" height="22" viewBox="0 0 78 22" fill="none" xmlns="http://www.w3.org/2000/svg">
<path d="M2.7 19.512C2.004 19.512 1.38 19.116 0.827999 18.324C0.275999 17.532 -1.43051e-06 16.512 -1.43051e-06 15.264C-1.43051e-06 13.896 0.179999 12.432 0.539999 10.872C0.923999 9.312 1.392 7.728 1.944 6.12C2.496 4.488 3.036 2.916 3.564 1.404C3.684 1.092 3.852 0.863995 4.068 0.719996C4.308 0.551995 4.668 0.467995 5.148 0.467995C6.012 0.467995 6.444 0.887995 6.444 1.728C6.444 1.92 6.348 2.352 6.156 3.024C5.964 3.696 5.712 4.524 5.4 5.508C5.112 6.492 4.812 7.56 4.5 8.712C4.188 9.84 3.912 10.98 3.672 12.132C3.432 13.284 3.264 14.352 3.168 15.336C3.552 14.928 3.984 14.304 4.464 13.464C4.968 12.624 5.508 11.676 6.084 10.62C6.66 9.54 7.26 8.46 7.884 7.38C8.508 6.276 9.132 5.268 9.756 4.356C10.404 3.42 11.028 2.676 11.628 2.12399C12.252 1.548 12.828 1.26 13.356 1.26C14.124 1.26 14.772 1.49999 15.3 1.97999C15.852 2.436 16.272 3.252 16.56 4.428C16.872 5.58 17.028 7.212 17.028 9.324C17.028 10.452 17.136 11.508 17.352 12.492C17.592 13.476 17.964 14.268 18.468 14.868C18.996 15.444 19.668 15.732 20.484 15.732C21.708 15.732 22.8 15.516 23.76 15.084C24.72 14.628 25.548 14.124 26.244 13.572C26.964 12.996 27.564 12.492 28.044 12.06C28.524 11.604 28.896 11.376 29.16 11.376C29.712 11.376 29.988 11.664 29.988 12.24C29.988 12.48 29.808 12.864 29.448 13.392C29.112 13.896 28.632 14.472 28.008 15.12C27.408 15.744 26.712 16.356 25.92 16.956C25.152 17.532 24.324 18.012 23.436 18.396C22.572 18.78 21.696 18.972 20.808 18.972C19.152 18.972 17.796 18.648 16.74 18C15.708 17.352 14.94 16.284 14.436 14.796C13.956 13.308 13.716 11.316 13.716 8.82C13.716 7.452 13.632 6.456 13.464 5.832C13.32 5.184 13.044 4.752 12.636 4.536C12.348 5.04 11.976 5.76 11.52 6.696C11.064 7.608 10.536 8.628 9.936 9.756C9.36 10.884 8.748 12.024 8.1 13.176C7.476 14.304 6.84 15.348 6.192 16.308C5.544 17.268 4.92 18.048 4.32 18.648C3.72 19.224 3.18 19.512 2.7 19.512ZM42.8081 4.824C42.8081 5.592 42.5681 6.348 42.0881 7.092C41.6081 7.812 40.9721 8.508 40.1801 9.18C39.3881 9.828 38.5121 10.44 37.5521 11.016C36.5921 11.592 35.6321 12.096 34.6721 12.528C33.7121 12.96 32.8361 13.308 32.0441 13.572C31.8521 14.508 31.7561 15.336 31.7561 16.056C31.7561 16.512 31.8641 16.836 32.0801 17.028C32.2961 17.22 32.6321 17.316 33.0881 17.316C34.0961 17.316 35.1641 17.136 36.2921 16.776C37.4201 16.416 38.5721 15.948 39.7481 15.372C40.9241 14.796 42.0521 14.184 43.1321 13.536C44.2121 12.888 45.1961 12.276 46.0841 11.7C46.9961 11.124 47.7521 10.656 48.3521 10.296C48.9521 9.936 49.3481 9.756 49.5401 9.756C49.8281 9.756 50.0441 9.852 50.1881 10.044C50.3561 10.212 50.4401 10.416 50.4401 10.656C50.4401 10.848 50.1401 11.22 49.5401 11.772C48.9641 12.324 48.1841 12.972 47.2001 13.716C46.2161 14.436 45.1121 15.18 43.8881 15.948C42.6641 16.716 41.3921 17.436 40.0721 18.108C38.7761 18.78 37.5161 19.32 36.2921 19.728C35.0921 20.136 34.0121 20.34 33.0521 20.34C31.8041 20.34 30.8321 19.872 30.1361 18.936C29.4401 18 29.0921 16.548 29.0921 14.58C29.0921 13.26 29.2601 11.928 29.5961 10.584C29.9561 9.24 30.4361 7.956 31.0361 6.732C31.6601 5.484 32.3441 4.38 33.0881 3.42C33.8561 2.436 34.6601 1.66799 35.5001 1.11599C36.3401 0.539995 37.1561 0.251995 37.9481 0.251995C39.4601 0.251995 40.6481 0.671996 41.5121 1.512C42.3761 2.352 42.8081 3.456 42.8081 4.824ZM32.8001 10.8C33.5441 10.344 34.3121 9.864 35.1041 9.36C35.8961 8.856 36.6281 8.34 37.3001 7.812C37.9721 7.284 38.5121 6.732 38.9201 6.156C39.3521 5.556 39.5681 4.944 39.5681 4.32C39.5681 3.432 39.0881 2.988 38.1281 2.988C37.5281 2.988 36.8921 3.372 36.2201 4.14C35.5721 4.884 34.9481 5.856 34.3481 7.056C33.7481 8.256 33.2321 9.504 32.8001 10.8ZM52.8247 21.384C51.9847 21.384 51.2887 21.012 50.7367 20.268C50.2087 19.5 49.9447 18.144 49.9447 16.2C49.9447 14.16 49.9807 12.18 50.0527 10.26C50.1247 8.316 50.2567 6.576 50.4487 5.04C50.6647 3.504 50.9527 2.28 51.3127 1.368C51.6727 0.455996 52.1407 -3.57628e-06 52.7167 -3.57628e-06C53.1247 -3.57628e-06 53.4847 0.227996 53.7967 0.683996C54.1087 1.116 54.2647 1.692 54.2647 2.412C54.2647 3.156 54.1927 4.152 54.0487 5.4C53.9047 6.648 53.7247 7.992 53.5087 9.432C53.3167 10.848 53.1487 12.228 53.0047 13.572C52.8607 14.892 52.7887 16.008 52.7887 16.92C52.7887 17.304 52.8007 17.616 52.8247 17.856C52.8727 18.072 52.9447 18.18 53.0407 18.18C53.4007 18.18 53.7847 17.868 54.1927 17.244C54.6247 16.596 55.0807 15.756 55.5607 14.724C56.0407 13.668 56.5447 12.516 57.0727 11.268C57.6007 9.996 58.1407 8.736 58.6927 7.488C59.2447 6.24 59.8087 5.1 60.3847 4.068C60.9607 3.012 61.5367 2.172 62.1127 1.548C62.6887 0.899996 63.2527 0.575995 63.8047 0.575995C64.4527 0.575995 65.0527 0.887996 65.6047 1.512C66.1807 2.112 66.4687 2.976 66.4687 4.104C66.4687 4.44 66.4207 5.028 66.3247 5.868C66.2287 6.684 66.1087 7.62 65.9647 8.676C65.8207 9.732 65.6767 10.788 65.5327 11.844C65.3887 12.876 65.2687 13.8 65.1727 14.616C65.0767 15.408 65.0287 15.972 65.0287 16.308C65.0287 17.556 65.1487 18.18 65.3887 18.18C66.0607 18.18 66.7687 17.76 67.5127 16.92C68.2807 16.056 69.0487 14.952 69.8167 13.608C70.6087 12.24 71.3887 10.764 72.1567 9.18C72.9487 7.572 73.7047 6.036 74.4247 4.572C74.7607 3.804 75.0367 3.288 75.2527 3.024C75.4927 2.736 75.7327 2.592 75.9727 2.592C76.3087 2.592 76.6207 2.772 76.9087 3.132C77.2207 3.492 77.3767 3.984 77.3767 4.608C77.3767 4.824 77.3647 5.04 77.3407 5.256C77.3167 5.448 77.2567 5.664 77.1607 5.904C76.3447 8.064 75.4687 10.068 74.5327 11.916C73.5967 13.74 72.6367 15.336 71.6527 16.704C70.6927 18.048 69.7447 19.104 68.8087 19.872C67.8727 20.616 67.0087 20.988 66.2167 20.988C64.8487 20.988 63.7807 20.604 63.0127 19.836C62.2687 19.044 61.8967 17.988 61.8967 16.668C61.8967 16.116 61.9327 15.396 62.0047 14.508C62.1007 13.62 62.2087 12.66 62.3287 11.628C62.4727 10.596 62.6167 9.6 62.7607 8.64C62.9047 7.68 63.0247 6.84 63.1207 6.12C63.2407 5.4 63.3127 4.908 63.3367 4.644C63.3607 4.308 63.3247 4.14 63.2287 4.14C63.1327 4.14 62.9407 4.452 62.6527 5.076C62.3887 5.676 62.0647 6.444 61.6807 7.38C61.3207 8.292 60.9367 9.24 60.5287 10.224C60.0727 11.304 59.5447 12.492 58.9447 13.788C58.3687 15.06 57.7447 16.272 57.0727 17.424C56.4247 18.576 55.7407 19.524 55.0207 20.268C54.3007 21.012 53.5687 21.384 52.8247 21.384Z" fill="#FF30F1"/>
</svg>
